<svg width="1280" height="1024" xmlns="http://www.w3.org/2000/svg" xmlns:svg="http://www.w3.org/2000/svg" preserveAspectRatio="xMidYMid meet">
    <defs>
        <clipPath id="__lottie_element_414">
            <rect x="0" y="0" width="1280" height="1024" id="svg_1"/>
        </clipPath>
        <clipPath id="__lottie_element_416">
            <path d="m0,0l1280,0l0,1024l-1280,0l0,-1024z" id="svg_2"/>
        </clipPath>
        <path id="svg_3"/>
        <clipPath id="__lottie_element_420">
            <path d="m0,0l1280,0l0,1024l-1280,0l0,-1024z" id="svg_4"/>
        </clipPath>
        <clipPath id="__lottie_element_445">
            <path d="m0,0l1280,0l0,1024l-1280,0l0,-1024z" id="svg_5"/>
        </clipPath>
        <clipPath id="__lottie_element_470">
            <path d="m0,0l1280,0l0,1024l-1280,0l0,-1024z" id="svg_6"/>
        </clipPath>
        <clipPath id="__lottie_element_489">
            <path d="m0,0l1280,0l0,1024l-1280,0l0,-1024z" id="svg_7"/>
        </clipPath>
        <clipPath id="__lottie_element_523">
            <path d="m0,0l1280,0l0,1024l-1280,0l0,-1024z" id="svg_8"/>
        </clipPath>
    </defs>
    <g>
        <title>Layer 3</title>
        <path transform="rotate(0.980217695236206 697.4003295898403,876.0704345703116) " stroke="#1b1b1d" id="svg_365" d="m-1.67311,1216.63667c113.77416,-61.93104 -165.42335,-187.52806 -22.04099,-210.5525c143.38236,-23.02444 500.63729,-56.11822 591.03706,-108.80582c167.2818,-64.47299 147.77055,-174.11192 117.83095,-216.53237c-29.9396,-42.42045 -168.25138,-42.79822 -96.27153,-69.32344c71.97985,-26.52522 -7.60371,-66.55276 -8.44857,-67.24602c-0.84485,-0.69326 847.39221,-34.66289 846.54734,-35.35615c-0.84485,-0.69326 43.9326,714.05563 31.25974,714.05563c-12.67286,0 -1411.75712,49.91456 -1459.914,-6.23933z" stroke-linecap="null" stroke-linejoin="null" stroke-dasharray="null" stroke-width="5" fill="#1b1b1d"/>
    </g>
    <g>
        <title>Layer 4</title>
        <path id="svg_14" d="m761.4967,613.91393c23.01439,59.8129 24.29297,110.71749 25.14535,109.86907c0.85239,-0.84841 -37.93113,-107.32202 -49.43832,-127.68387c-11.50721,-20.36183 -51.14309,-76.35869 -50.29071,-77.20711c0.85239,-0.84841 51.56927,35.209 74.58367,95.0219l0.00001,0.00001z" stroke-linecap="null" stroke-linejoin="null" stroke-dasharray="null" stroke-width="5" fill="#444444" stroke="#444444"/>
        <path transform="rotate(21.65598487854004 890.6987304687499,724.5355224609376) " id="svg_15" d="m919.12685,716.89597c26.46772,61.57077 27.93815,113.97142 28.91844,113.09807c0.98029,-0.87335 -43.62274,-110.47617 -56.8566,-131.43643c-13.23388,-20.96026 -58.81717,-78.60284 -57.83689,-79.47619c0.98029,-0.87335 59.3073,36.24378 85.77504,97.81455l0.00001,0z" stroke-linecap="null" stroke-linejoin="null" stroke-dasharray="null" stroke-width="5" fill="#444444" stroke="#444444"/>
        <path transform="rotate(18.711732864379883 989.7284545898438,644.4444580078124) " id="svg_16" d="m1025.54787,636.9494c33.3493,60.4057 35.20204,111.81479 36.4372,110.95797c1.23516,-0.85682 -54.9646,-108.38568 -71.63925,-128.94933c-16.67467,-20.56364 -74.10957,-77.11548 -72.87441,-77.9723c1.23516,-0.85682 74.72713,35.55796 108.07645,95.96365l0.00001,0.00001z" stroke-linecap="null" stroke-linejoin="null" stroke-dasharray="null" stroke-width="5" fill="#444444" stroke="#444444"/>
    </g>
    <g>
        <title>Layer 2</title>
        <ellipse fill="#fbfbfb" stroke-width="5" stroke-dasharray="null" stroke-linejoin="null" stroke-linecap="null" cx="511.01234" cy="567.30863" id="svg_369" rx="105.48148" ry="71.11111" stroke="#fbfbfb"/>
        <ellipse stroke="#fbfbfb" fill="#fbfbfb" stroke-width="5" stroke-dasharray="null" stroke-linejoin="null" stroke-linecap="null" cx="653.5309" cy="588.64197" id="svg_370" rx="85.62964" ry="38.51851"/>
        <ellipse fill="#fbfbfb" stroke="#fbfbfb" stroke-width="5" stroke-dasharray="null" stroke-linejoin="null" stroke-linecap="null" cx="619.45679" cy="447.01234" id="svg_371" rx="109.03704" ry="66.37037"/>
        <ellipse fill="#fbfbfb" stroke="#fbfbfb" stroke-width="5" stroke-dasharray="null" stroke-linejoin="null" stroke-linecap="null" cx="695.45679" cy="426.86419" id="svg_372" rx="146.96296" ry="61.62963"/>
        <ellipse fill="#fbfbfb" stroke="#fbfbfb" stroke-width="5" stroke-dasharray="null" stroke-linejoin="null" stroke-linecap="null" cx="908.64197" cy="422.71604" id="svg_373" rx="142.22222" ry="47.40741"/>
        <ellipse fill="#fbfbfb" stroke="#fbfbfb" stroke-width="5" stroke-dasharray="null" stroke-linejoin="null" stroke-linecap="null" cx="560.79012" cy="494.71604" id="svg_374" rx="192" ry="80.59259"/>
        <ellipse stroke="#fbfbfb" fill="#fbfbfb" stroke-width="5" stroke-dasharray="null" stroke-linejoin="null" stroke-linecap="null" cx="983.90124" cy="437.45678" id="svg_375" rx="175.40741" ry="86.59259"/>
        <ellipse stroke="#fbfbfb" fill="#fbfbfb" stroke-width="5" stroke-dasharray="null" stroke-linejoin="null" stroke-linecap="null" cx="1211.90125" cy="431.45679" id="svg_376" rx="188.88889" ry="103.55556"/>
        <ellipse stroke="#fbfbfb" fill="#fbfbfb" stroke-width="5" stroke-dasharray="null" stroke-linejoin="null" stroke-linecap="null" cx="875.01236" cy="534.71604" id="svg_377" rx="188.00001" ry="101.92593"/>
        <ellipse fill="#fbfbfb" stroke-width="5" stroke-dasharray="null" stroke-linejoin="null" stroke-linecap="null" cx="567.30862" cy="565.53092" rx="94.98218" ry="73.68319" id="svg_378" transform="rotate(115.615478515625 567.3086547851564,565.5309448242188) " stroke="#fbfbfb"/>
        <ellipse fill="#fbfbfb" stroke-width="5" stroke-dasharray="null" stroke-linejoin="null" stroke-linecap="null" cx="1074.56788" cy="484.93836" rx="94.98218" ry="73.68319" transform="rotate(177.3974151611328 1074.56787109375,484.9383850097657) " stroke="#fbfbfb" id="svg_379"/>
    </g>
</svg>