<svg width="1280" height="1024" xmlns="http://www.w3.org/2000/svg" xmlns:svg="http://www.w3.org/2000/svg" preserveAspectRatio="xMidYMid meet">
    <defs>
        <clipPath id="__lottie_element_414">
            <rect x="0" y="0" width="1280" height="1024" id="svg_1"/>
        </clipPath>
        <clipPath id="__lottie_element_416">
            <path d="m0,0l1280,0l0,1024l-1280,0l0,-1024z" id="svg_2"/>
        </clipPath>
        <path id="svg_3"/>
        <clipPath id="__lottie_element_420">
            <path d="m0,0l1280,0l0,1024l-1280,0l0,-1024z" id="svg_4"/>
        </clipPath>
        <clipPath id="__lottie_element_445">
            <path d="m0,0l1280,0l0,1024l-1280,0l0,-1024z" id="svg_5"/>
        </clipPath>
        <clipPath id="__lottie_element_470">
            <path d="m0,0l1280,0l0,1024l-1280,0l0,-1024z" id="svg_6"/>
        </clipPath>
        <clipPath id="__lottie_element_489">
            <path d="m0,0l1280,0l0,1024l-1280,0l0,-1024z" id="svg_7"/>
        </clipPath>
        <clipPath id="__lottie_element_523">
            <path d="m0,0l1280,0l0,1024l-1280,0l0,-1024z" id="svg_8"/>
        </clipPath>
    </defs>
    <g>
        <title>Layer 3</title>
        <path transform="rotate(0.980217695236206 697.4003295898403,876.0704345703116) " stroke="#1b1b1d" id="svg_365" d="m-1.67311,1216.63667c113.77416,-61.93104 -165.42335,-187.52806 -22.04099,-210.5525c143.38236,-23.02444 499.72297,-51.10184 590.12274,-103.78944c167.2818,-64.47299 150.68458,-179.16251 120.74498,-221.58296c-29.9396,-42.42045 -169.31967,-46.78053 -98.27124,-69.28923c71.04843,-22.5087 -7.60371,-66.55276 -8.44857,-67.24602c-0.84485,-0.69326 847.39221,-34.66289 846.54734,-35.35615c-0.84485,-0.69326 43.9326,714.05563 31.25974,714.05563c-12.67286,0 -1411.75712,49.91456 -1459.914,-6.23933z" stroke-linecap="null" stroke-linejoin="null" stroke-dasharray="null" stroke-width="5" fill="#1b1b1d"/>
    </g>
    <g>
        <title>Layer 4</title>
        <path stroke="#444444" fill="#444444" stroke-width="5" stroke-dasharray="null" stroke-linejoin="null" stroke-linecap="null" d="m759.4967,591.91393c23.01439,59.8129 24.29297,110.71749 25.14535,109.86907c0.85239,-0.84841 -37.93113,-107.32202 -49.43832,-127.68387c-11.50721,-20.36183 -51.14309,-76.35869 -50.29071,-77.20711c0.85239,-0.84841 51.56927,35.209 74.58367,95.0219l0.00001,0.00001z" id="svg_14"/>
        <path stroke="#444444" fill="#444444" stroke-width="5" stroke-dasharray="null" stroke-linejoin="null" stroke-linecap="null" d="m917.77712,669.54649c27.07315,64.38737 28.57721,119.18513 29.57992,118.27182c1.00271,-0.9133 -44.62057,-115.52998 -58.15714,-137.44909c-13.53659,-21.9191 -60.16256,-82.19858 -59.15986,-83.11189c1.00271,-0.9133 60.6639,37.90178 87.73707,102.28915l0.00001,0z" id="svg_15" transform="rotate(21.65598487854004 888.6987304687497,677.5355224609375) "/>
        <path stroke="#444444" fill="#444444" stroke-width="5" stroke-dasharray="null" stroke-linejoin="null" stroke-linecap="null" d="m1025.54787,583.9494c33.3493,60.4057 35.20204,111.81479 36.4372,110.95797c1.23516,-0.85682 -54.9646,-108.38568 -71.63925,-128.94933c-16.67467,-20.56364 -74.10957,-77.11548 -72.87441,-77.9723c1.23516,-0.85682 74.72713,35.55796 108.07645,95.96365l0.00001,0.00001z" id="svg_16" transform="rotate(18.711732864379883 989.7285766601559,591.4444580078127) "/>
    </g>
    <g>
        <title>Layer 2</title>
        <ellipse stroke="#fbfbfb" ry="69.11111" rx="94.14814" id="svg_369" cy="565.30863" cx="522.34567" stroke-linecap="null" stroke-linejoin="null" stroke-dasharray="null" stroke-width="5" fill="#fbfbfb"/>
        <ellipse stroke="#fbfbfb" ry="47.85184" rx="110.96298" id="svg_370" cy="579.30863" cx="678.86424" stroke-linecap="null" stroke-linejoin="null" stroke-dasharray="null" stroke-width="5" fill="#fbfbfb"/>
        <ellipse ry="66.37037" rx="109.03704" id="svg_371" cy="447.01234" cx="619.45679" stroke-linecap="null" stroke-linejoin="null" stroke-dasharray="null" stroke-width="5" stroke="#fbfbfb" fill="#fbfbfb"/>
        <ellipse stroke="#fbfbfb" ry="54.29629" rx="146.96296" id="svg_372" cy="434.19752" cx="694.12346" stroke-linecap="null" stroke-linejoin="null" stroke-dasharray="null" stroke-width="5" fill="#fbfbfb"/>
        <ellipse ry="47.40741" rx="142.22222" id="svg_373" cy="422.71604" cx="908.64197" stroke-linecap="null" stroke-linejoin="null" stroke-dasharray="null" stroke-width="5" stroke="#fbfbfb" fill="#fbfbfb"/>
        <ellipse stroke="#fbfbfb" ry="80.59259" rx="180" id="svg_374" cy="494.71604" cx="572.79012" stroke-linecap="null" stroke-linejoin="null" stroke-dasharray="null" stroke-width="5" fill="#fbfbfb"/>
        <ellipse stroke="#fbfbfb" ry="81.25926" rx="175.40741" id="svg_375" cy="442.79011" cx="983.90124" stroke-linecap="null" stroke-linejoin="null" stroke-dasharray="null" stroke-width="5" fill="#fbfbfb"/>
        <ellipse ry="103.55556" rx="188.88889" id="svg_376" cy="423.45679" cx="1215.90125" stroke-linecap="null" stroke-linejoin="null" stroke-dasharray="null" stroke-width="5" fill="#fbfbfb" stroke="#fbfbfb"/>
        <ellipse stroke="#fbfbfb" ry="101.92593" rx="167.33334" id="svg_377" cy="534.71604" cx="895.67904" stroke-linecap="null" stroke-linejoin="null" stroke-dasharray="null" stroke-width="5" fill="#fbfbfb"/>
        <ellipse stroke="#fbfbfb" transform="rotate(115.615478515625 567.3086547851564,565.5309448242188) " id="svg_378" ry="73.68319" rx="94.98218" cy="565.53092" cx="567.30862" stroke-linecap="null" stroke-linejoin="null" stroke-dasharray="null" stroke-width="5" fill="#fbfbfb"/>
        <ellipse id="svg_379" stroke="#fbfbfb" transform="rotate(177.3974151611328 1087.9012451171875,503.6050109863282) " ry="73.68319" rx="94.98218" cy="503.60503" cx="1087.90121" stroke-linecap="null" stroke-linejoin="null" stroke-dasharray="null" stroke-width="5" fill="#fbfbfb"/>
    </g>
</svg>