<svg width="1280" height="1024" xmlns="http://www.w3.org/2000/svg" xmlns:svg="http://www.w3.org/2000/svg" preserveAspectRatio="xMidYMid meet">
    <defs>
        <clipPath id="__lottie_element_414">
            <rect x="0" y="0" width="1280" height="1024" id="svg_1"/>
        </clipPath>
        <clipPath id="__lottie_element_416">
            <path d="m0,0l1280,0l0,1024l-1280,0l0,-1024z" id="svg_2"/>
        </clipPath>
        <path id="svg_3"/>
        <clipPath id="__lottie_element_420">
            <path d="m0,0l1280,0l0,1024l-1280,0l0,-1024z" id="svg_4"/>
        </clipPath>
        <clipPath id="__lottie_element_445">
            <path d="m0,0l1280,0l0,1024l-1280,0l0,-1024z" id="svg_5"/>
        </clipPath>
        <clipPath id="__lottie_element_470">
            <path d="m0,0l1280,0l0,1024l-1280,0l0,-1024z" id="svg_6"/>
        </clipPath>
        <clipPath id="__lottie_element_489">
            <path d="m0,0l1280,0l0,1024l-1280,0l0,-1024z" id="svg_7"/>
        </clipPath>
        <clipPath id="__lottie_element_523">
            <path d="m0,0l1280,0l0,1024l-1280,0l0,-1024z" id="svg_8"/>
        </clipPath>
    </defs>
    <g>
        <title>Layer 3</title>
        <path transform="rotate(0.980217695236206 697.4003295898403,876.0704345703116) " stroke="#1b1b1d" id="svg_365" d="m-1.67311,1216.63667c113.77416,-61.93104 -165.42335,-187.52806 -22.04099,-210.5525c143.38236,-23.02444 501.774,-48.13649 592.17377,-100.82409c167.2818,-64.47299 152.70139,-178.19687 122.76179,-220.61732c-29.9396,-42.42046 -162.45755,-54.89911 -102.33908,-73.22022c60.11847,-18.32111 -7.60371,-66.55276 -8.44857,-67.24602c-0.84485,-0.69326 847.39221,-34.66289 846.54734,-35.35615c-0.84485,-0.69326 43.9326,714.05563 31.25974,714.05563c-12.67286,0 -1411.75712,49.91456 -1459.914,-6.23933z" stroke-linecap="null" stroke-linejoin="null" stroke-dasharray="null" stroke-width="5" fill="#1b1b1d"/>
    </g>
    <g>
        <title>Layer 4</title>
        <path stroke="#444444" fill="#444444" stroke-width="5" stroke-dasharray="null" stroke-linejoin="null" stroke-linecap="null" d="m740.4967,550.91393c23.01439,59.8129 24.29297,110.71749 25.14535,109.86907c0.85239,-0.84841 -37.93113,-107.32202 -49.43832,-127.68387c-11.50721,-20.36183 -51.14309,-76.35869 -50.29071,-77.20711c0.85239,-0.84841 51.56927,35.209 74.58367,95.0219l0.00001,0.00001z" id="svg_14"/>
        <path stroke="#444444" fill="#444444" stroke-width="5" stroke-dasharray="null" stroke-linejoin="null" stroke-linecap="null" d="m911.77712,601.54649c27.07315,64.38737 28.57721,119.18513 29.57992,118.27182c1.00271,-0.9133 -44.62057,-115.52998 -58.15714,-137.44909c-13.53659,-21.9191 -60.16256,-82.19858 -59.15986,-83.11189c1.00271,-0.9133 60.6639,37.90178 87.73707,102.28915l0.00001,0z" id="svg_15" transform="rotate(21.65598487854004 882.69873046875,609.5355224609375) "/>
        <path stroke="#444444" fill="#444444" stroke-width="5" stroke-dasharray="null" stroke-linejoin="null" stroke-linecap="null" d="m1019.54787,531.9494c33.3493,60.4057 35.20204,111.81479 36.4372,110.95797c1.23516,-0.85682 -54.9646,-108.38568 -71.63925,-128.94933c-16.67467,-20.56364 -74.10957,-77.11548 -72.87441,-77.9723c1.23516,-0.85682 74.72713,35.55796 108.07645,95.96365l0.00001,0.00001z" id="svg_16" transform="rotate(18.711732864379883 983.7285766601558,539.4444580078124) "/>
    </g>
    <g>
        <title>Layer 2</title>
        <ellipse stroke="#fbfbfb" fill="#fbfbfb" stroke-width="5" stroke-dasharray="null" stroke-linejoin="null" stroke-linecap="null" cx="537.01233" cy="560.64196" id="svg_369" rx="79.48147" ry="64.44444"/>
        <ellipse stroke="#fbfbfb" fill="#fbfbfb" stroke-width="5" stroke-dasharray="null" stroke-linejoin="null" stroke-linecap="null" cx="732.86425" cy="579.30863" id="svg_370" rx="160.96298" ry="47.85184"/>
        <ellipse fill="#fbfbfb" stroke="#fbfbfb" stroke-width="5" stroke-dasharray="null" stroke-linejoin="null" stroke-linecap="null" cx="619.45679" cy="447.01234" id="svg_371" rx="109.03704" ry="66.37037"/>
        <ellipse stroke="#fbfbfb" fill="#fbfbfb" stroke-width="5" stroke-dasharray="null" stroke-linejoin="null" stroke-linecap="null" cx="700.79013" cy="431.53085" id="svg_372" rx="153.62963" ry="56.96296"/>
        <ellipse fill="#fbfbfb" stroke="#fbfbfb" stroke-width="5" stroke-dasharray="null" stroke-linejoin="null" stroke-linecap="null" cx="908.64197" cy="422.71604" id="svg_373" rx="142.22222" ry="47.40741"/>
        <ellipse stroke="#fbfbfb" fill="#fbfbfb" stroke-width="5" stroke-dasharray="null" stroke-linejoin="null" stroke-linecap="null" cx="652.12345" cy="494.71604" id="svg_374" rx="226" ry="80.59259"/>
        <ellipse stroke="#fbfbfb" fill="#fbfbfb" stroke-width="5" stroke-dasharray="null" stroke-linejoin="null" stroke-linecap="null" cx="993.90125" cy="439.45677" id="svg_375" rx="185.40742" ry="84.5926"/>
        <ellipse stroke="#fbfbfb" fill="#fbfbfb" stroke-width="5" stroke-dasharray="null" stroke-linejoin="null" stroke-linecap="null" cx="1255.23459" cy="423.45679" id="svg_376" rx="146.88889" ry="103.55556"/>
        <ellipse stroke="#fbfbfb" fill="#fbfbfb" stroke-width="5" stroke-dasharray="null" stroke-linejoin="null" stroke-linecap="null" cx="939.01238" cy="533.38271" id="svg_377" rx="125.33333" ry="101.92593"/>
        <ellipse stroke="#fbfbfb" fill="#fbfbfb" stroke-width="5" stroke-dasharray="null" stroke-linejoin="null" stroke-linecap="null" cx="583.97532" cy="557.53094" rx="80.56296" ry="85.25315" id="svg_378" transform="rotate(115.615478515625 583.9753417968751,557.5309448242188) "/>
        <ellipse stroke="#fbfbfb" fill="#fbfbfb" stroke-width="5" stroke-dasharray="null" stroke-linejoin="null" stroke-linecap="null" cx="1131.23594" cy="501.63523" rx="95.61789" ry="73.68319" transform="rotate(177.3974151611328 1131.2359619140625,501.63522338867193) " id="svg_379"/>
    </g>
</svg>