<svg width="1280" height="1024" xmlns="http://www.w3.org/2000/svg" xmlns:svg="http://www.w3.org/2000/svg" preserveAspectRatio="xMidYMid meet">
    <defs>
        <clipPath id="__lottie_element_414">
            <rect x="0" y="0" width="1280" height="1024" id="svg_1"/>
        </clipPath>
        <clipPath id="__lottie_element_416">
            <path d="m0,0l1280,0l0,1024l-1280,0l0,-1024z" id="svg_2"/>
        </clipPath>
        <path id="svg_3"/>
        <clipPath id="__lottie_element_420">
            <path d="m0,0l1280,0l0,1024l-1280,0l0,-1024z" id="svg_4"/>
        </clipPath>
        <clipPath id="__lottie_element_445">
            <path d="m0,0l1280,0l0,1024l-1280,0l0,-1024z" id="svg_5"/>
        </clipPath>
        <clipPath id="__lottie_element_470">
            <path d="m0,0l1280,0l0,1024l-1280,0l0,-1024z" id="svg_6"/>
        </clipPath>
        <clipPath id="__lottie_element_489">
            <path d="m0,0l1280,0l0,1024l-1280,0l0,-1024z" id="svg_7"/>
        </clipPath>
        <clipPath id="__lottie_element_523">
            <path d="m0,0l1280,0l0,1024l-1280,0l0,-1024z" id="svg_8"/>
        </clipPath>
    </defs>
    <g>
        <title>Layer 3</title>
        <path transform="rotate(0.980217695236206 697.4003295898403,876.0704345703116) " stroke="#1b1b1d" id="svg_365" d="m-1.67311,1216.63667c113.77416,-61.93104 -165.42335,-187.52806 -22.04099,-210.5525c143.38236,-23.02444 507.77312,-48.23913 598.17289,-100.92673c167.2818,-64.47299 150.75301,-175.1631 120.81341,-217.58355c-29.9396,-42.42046 -159.56064,-60.94955 -106.38982,-76.15135c53.17082,-15.2018 -7.60371,-66.55276 -8.44857,-67.24602c-0.84485,-0.69326 847.39221,-34.66289 846.54734,-35.35615c-0.84485,-0.69326 43.9326,714.05563 31.25974,714.05563c-12.67286,0 -1411.75712,49.91456 -1459.914,-6.23933z" stroke-linecap="null" stroke-linejoin="null" stroke-dasharray="null" stroke-width="5" fill="#1b1b1d"/>
    </g>
    <g>
        <title>Layer 2</title>
        <ellipse ry="64.44444" rx="79.48147" id="svg_369" cy="553.97529" cx="551.679" stroke-linecap="null" stroke-linejoin="null" stroke-dasharray="null" stroke-width="5" fill="#fbfbfb" stroke="#fbfbfb"/>
        <ellipse stroke="#fbfbfb" ry="53.85184" rx="187.62964" id="svg_370" cy="569.30863" cx="768.86424" stroke-linecap="null" stroke-linejoin="null" stroke-dasharray="null" stroke-width="5" fill="#fbfbfb"/>
        <ellipse ry="66.37037" rx="109.03704" id="svg_371" cy="447.01234" cx="619.45679" stroke-linecap="null" stroke-linejoin="null" stroke-dasharray="null" stroke-width="5" stroke="#fbfbfb" fill="#fbfbfb"/>
        <ellipse ry="56.96296" rx="153.62963" id="svg_372" cy="440.86418" cx="707.4568" stroke-linecap="null" stroke-linejoin="null" stroke-dasharray="null" stroke-width="5" fill="#fbfbfb" stroke="#fbfbfb"/>
        <ellipse ry="47.40741" rx="142.22222" id="svg_373" cy="422.71604" cx="908.64197" stroke-linecap="null" stroke-linejoin="null" stroke-dasharray="null" stroke-width="5" stroke="#fbfbfb" fill="#fbfbfb"/>
        <ellipse ry="80.59259" rx="226" id="svg_374" cy="494.71604" cx="665.45678" stroke-linecap="null" stroke-linejoin="null" stroke-dasharray="null" stroke-width="5" fill="#fbfbfb" stroke="#fbfbfb"/>
        <ellipse ry="84.5926" rx="185.40742" id="svg_375" cy="443.45677" cx="996.56792" stroke-linecap="null" stroke-linejoin="null" stroke-dasharray="null" stroke-width="5" fill="#fbfbfb" stroke="#fbfbfb"/>
        <ellipse ry="103.55556" rx="146.88889" id="svg_376" cy="420.79012" cx="1261.90126" stroke-linecap="null" stroke-linejoin="null" stroke-dasharray="null" stroke-width="5" fill="#fbfbfb" stroke="#fbfbfb"/>
        <ellipse stroke="#fbfbfb" ry="89.25926" rx="109.33332" id="svg_377" cy="512.71604" cx="977.67905" stroke-linecap="null" stroke-linejoin="null" stroke-dasharray="null" stroke-width="5" fill="#fbfbfb"/>
        <ellipse transform="rotate(115.615478515625 598.6419677734375,549.5309448242188) " id="svg_378" ry="85.25315" rx="80.56296" cy="549.53094" cx="598.64199" stroke-linecap="null" stroke-linejoin="null" stroke-dasharray="null" stroke-width="5" fill="#fbfbfb" stroke="#fbfbfb"/>
        <ellipse id="svg_379" transform="rotate(177.3974151611328 1152.5693359375002,489.63522338867193) " ry="73.68319" rx="95.61789" cy="489.63523" cx="1152.56927" stroke-linecap="null" stroke-linejoin="null" stroke-dasharray="null" stroke-width="5" fill="#fbfbfb" stroke="#fbfbfb"/>
    </g>
</svg>