<svg width="1280" height="1024" xmlns="http://www.w3.org/2000/svg" xmlns:svg="http://www.w3.org/2000/svg" preserveAspectRatio="xMidYMid meet">
    <defs>
        <clipPath id="__lottie_element_414">
            <rect x="0" y="0" width="1280" height="1024" id="svg_1"/>
        </clipPath>
        <clipPath id="__lottie_element_416">
            <path d="m0,0l1280,0l0,1024l-1280,0l0,-1024z" id="svg_2"/>
        </clipPath>
        <path id="svg_3"/>
        <clipPath id="__lottie_element_420">
            <path d="m0,0l1280,0l0,1024l-1280,0l0,-1024z" id="svg_4"/>
        </clipPath>
        <clipPath id="__lottie_element_445">
            <path d="m0,0l1280,0l0,1024l-1280,0l0,-1024z" id="svg_5"/>
        </clipPath>
        <clipPath id="__lottie_element_470">
            <path d="m0,0l1280,0l0,1024l-1280,0l0,-1024z" id="svg_6"/>
        </clipPath>
        <clipPath id="__lottie_element_489">
            <path d="m0,0l1280,0l0,1024l-1280,0l0,-1024z" id="svg_7"/>
        </clipPath>
        <clipPath id="__lottie_element_523">
            <path d="m0,0l1280,0l0,1024l-1280,0l0,-1024z" id="svg_8"/>
        </clipPath>
    </defs>
    <g>
        <title>Layer 3</title>
        <path transform="rotate(0.980217695236206 697.4003295898403,876.0704345703116) " stroke="#1b1b1d" id="svg_365" d="m-1.67311,1216.63667c113.77416,-61.93104 -165.42335,-187.52806 -22.04099,-210.5525c143.38236,-23.02444 501.774,-48.13649 592.17377,-100.82409c167.2818,-64.47299 152.70139,-178.19687 122.76179,-220.61732c-29.9396,-42.42046 -162.45755,-54.89911 -102.33908,-73.22022c60.11847,-18.32111 -7.60371,-66.55276 -8.44857,-67.24602c-0.84485,-0.69326 847.39221,-34.66289 846.54734,-35.35615c-0.84485,-0.69326 43.9326,714.05563 31.25974,714.05563c-12.67286,0 -1411.75712,49.91456 -1459.914,-6.23933z" stroke-linecap="null" stroke-linejoin="null" stroke-dasharray="null" stroke-width="5" fill="#1b1b1d"/>
    </g>
    <g>
        <title>Layer 2</title>
        <ellipse stroke="#fbfbfb" fill="#fbfbfb" stroke-width="5" stroke-dasharray="null" stroke-linejoin="null" stroke-linecap="null" cx="537.01233" cy="560.64196" id="svg_369" rx="79.48147" ry="64.44444"/>
        <ellipse stroke="#fbfbfb" fill="#fbfbfb" stroke-width="5" stroke-dasharray="null" stroke-linejoin="null" stroke-linecap="null" cx="732.86425" cy="579.30863" id="svg_370" rx="160.96298" ry="47.85184"/>
        <ellipse fill="#fbfbfb" stroke="#fbfbfb" stroke-width="5" stroke-dasharray="null" stroke-linejoin="null" stroke-linecap="null" cx="619.45679" cy="447.01234" id="svg_371" rx="109.03704" ry="66.37037"/>
        <ellipse stroke="#fbfbfb" fill="#fbfbfb" stroke-width="5" stroke-dasharray="null" stroke-linejoin="null" stroke-linecap="null" cx="700.79013" cy="431.53085" id="svg_372" rx="153.62963" ry="56.96296"/>
        <ellipse fill="#fbfbfb" stroke="#fbfbfb" stroke-width="5" stroke-dasharray="null" stroke-linejoin="null" stroke-linecap="null" cx="908.64197" cy="422.71604" id="svg_373" rx="142.22222" ry="47.40741"/>
        <ellipse stroke="#fbfbfb" fill="#fbfbfb" stroke-width="5" stroke-dasharray="null" stroke-linejoin="null" stroke-linecap="null" cx="652.12345" cy="494.71604" id="svg_374" rx="226" ry="80.59259"/>
        <ellipse stroke="#fbfbfb" fill="#fbfbfb" stroke-width="5" stroke-dasharray="null" stroke-linejoin="null" stroke-linecap="null" cx="993.90125" cy="439.45677" id="svg_375" rx="185.40742" ry="84.5926"/>
        <ellipse stroke="#fbfbfb" fill="#fbfbfb" stroke-width="5" stroke-dasharray="null" stroke-linejoin="null" stroke-linecap="null" cx="1255.23459" cy="423.45679" id="svg_376" rx="146.88889" ry="103.55556"/>
        <ellipse stroke="#fbfbfb" fill="#fbfbfb" stroke-width="5" stroke-dasharray="null" stroke-linejoin="null" stroke-linecap="null" cx="939.01238" cy="533.38271" id="svg_377" rx="125.33333" ry="101.92593"/>
        <ellipse stroke="#fbfbfb" fill="#fbfbfb" stroke-width="5" stroke-dasharray="null" stroke-linejoin="null" stroke-linecap="null" cx="583.97532" cy="557.53094" rx="80.56296" ry="85.25315" id="svg_378" transform="rotate(115.615478515625 583.9753417968751,557.5309448242188) "/>
        <ellipse stroke="#fbfbfb" fill="#fbfbfb" stroke-width="5" stroke-dasharray="null" stroke-linejoin="null" stroke-linecap="null" cx="1131.23594" cy="501.63523" rx="95.61789" ry="73.68319" transform="rotate(177.3974151611328 1131.2359619140625,501.63522338867193) " id="svg_379"/>
    </g>
</svg>