<svg width="1280" height="1024" xmlns="http://www.w3.org/2000/svg" xmlns:svg="http://www.w3.org/2000/svg" preserveAspectRatio="xMidYMid meet">
    <defs>
        <clipPath id="__lottie_element_414">
            <rect id="svg_1" height="1024" width="1280" y="0" x="0"/>
        </clipPath>
        <clipPath id="__lottie_element_416">
            <path id="svg_2" d="m0,0l1280,0l0,1024l-1280,0l0,-1024z"/>
        </clipPath>
        <path id="svg_3"/>
        <clipPath id="__lottie_element_420">
            <path id="svg_4" d="m0,0l1280,0l0,1024l-1280,0l0,-1024z"/>
        </clipPath>
        <clipPath id="__lottie_element_445">
            <path id="svg_5" d="m0,0l1280,0l0,1024l-1280,0l0,-1024z"/>
        </clipPath>
        <clipPath id="__lottie_element_470">
            <path id="svg_6" d="m0,0l1280,0l0,1024l-1280,0l0,-1024z"/>
        </clipPath>
        <clipPath id="__lottie_element_489">
            <path id="svg_7" d="m0,0l1280,0l0,1024l-1280,0l0,-1024z"/>
        </clipPath>
        <clipPath id="__lottie_element_523">
            <path id="svg_8" d="m0,0l1280,0l0,1024l-1280,0l0,-1024z"/>
        </clipPath>
    </defs>
    <g>
        <title>Layer 3</title>
        <path fill="#1b1b1d" stroke-width="5" stroke-dasharray="null" stroke-linejoin="null" stroke-linecap="null" d="m-1.67311,1216.63667c113.77416,-61.93104 -165.42335,-187.52806 -22.04099,-210.5525c143.38236,-23.02444 489.38228,-70.92784 579.78205,-123.61544c167.2818,-64.47299 140.06255,-156.97757 117.12193,-199.51777c-22.94062,-42.54021 -134.58139,-62.37706 -84.3075,-71.52842c50.27389,-9.15136 -7.60371,-66.55276 -8.44857,-67.24602c-0.84485,-0.69326 847.39221,-34.66289 846.54734,-35.35615c-0.84485,-0.69326 43.9326,714.05563 31.25974,714.05563c-12.67286,0 -1411.75712,49.91456 -1459.914,-6.23933z" id="svg_365" stroke="#1b1b1d" transform="rotate(0.980217695236206 697.4003295898403,876.0704345703116) "/>
    </g>
    <g>
        <title>Layer 2</title>
        <ellipse fill="#fbfbfb" stroke-width="5" stroke-dasharray="null" stroke-linejoin="null" stroke-linecap="null" cx="487.90123" cy="560.19752" id="svg_369" rx="105.48148" ry="71.11111" stroke="#fbfbfb"/>
        <ellipse fill="#fbfbfb" stroke="#fbfbfb" stroke-width="5" stroke-dasharray="null" stroke-linejoin="null" stroke-linecap="null" cx="567.30864" cy="602.86419" id="svg_370" rx="40.2963" ry="33.18518"/>
        <ellipse fill="#fbfbfb" stroke="#fbfbfb" stroke-width="5" stroke-dasharray="null" stroke-linejoin="null" stroke-linecap="null" cx="612.34568" cy="434.5679" id="svg_371" rx="109.03704" ry="66.37037"/>
        <ellipse fill="#fbfbfb" stroke="#fbfbfb" stroke-width="5" stroke-dasharray="null" stroke-linejoin="null" stroke-linecap="null" cx="726.12345" cy="439.30864" id="svg_372" rx="146.96296" ry="61.62963"/>
        <ellipse fill="#fbfbfb" stroke="#fbfbfb" stroke-width="5" stroke-dasharray="null" stroke-linejoin="null" stroke-linecap="null" cx="908.64197" cy="422.71604" id="svg_373" rx="142.22222" ry="47.40741"/>
        <ellipse fill="#fbfbfb" stroke="#fbfbfb" stroke-width="5" stroke-dasharray="null" stroke-linejoin="null" stroke-linecap="null" cx="569.67901" cy="465.38271" id="svg_374" rx="192" ry="80.59259"/>
        <ellipse fill="#fbfbfb" stroke="#fbfbfb" stroke-width="5" stroke-dasharray="null" stroke-linejoin="null" stroke-linecap="null" cx="1003.45679" cy="455.90123" id="svg_375" rx="175.40741" ry="80.59259"/>
        <ellipse fill="#fbfbfb" stroke="#fbfbfb" stroke-width="5" stroke-dasharray="null" stroke-linejoin="null" stroke-linecap="null" cx="1202.5679" cy="463.01234" id="svg_376" rx="184.88889" ry="99.55556"/>
        <ellipse fill="#fbfbfb" stroke="#fbfbfb" stroke-width="5" stroke-dasharray="null" stroke-linejoin="null" stroke-linecap="null" cx="775.90122" cy="543.60493" id="svg_377" rx="256" ry="101.92593"/>
        <ellipse fill="#fbfbfb" stroke-width="5" stroke-dasharray="null" stroke-linejoin="null" stroke-linecap="null" cx="503.30862" cy="606.4198" rx="94.98218" ry="73.68319" id="svg_378" transform="rotate(115.615478515625 503.30859374999994,606.4197998046875) " stroke="#fbfbfb"/>
        <ellipse fill="#fbfbfb" stroke-width="5" stroke-dasharray="null" stroke-linejoin="null" stroke-linecap="null" cx="1046.12343" cy="529.38281" rx="94.98218" ry="73.68319" transform="rotate(177.3974151611328 1046.1234130859375,529.3828125) " stroke="#fbfbfb" id="svg_379"/>
    </g>
</svg>